<svg id="Layer_1" data-name="Layer 1" xmlns="http://www.w3.org/2000/svg" viewBox="0 0 144 144"><defs><style>.cls-1{fill:#7eb6bc;}</style></defs><title>FishElements</title><path class="cls-1" d="M102.33,64.8L95,53.54l-0.36-1c-2-20.27-16.38-34.66-23.09-34.66-2.36,0-3.28,3.68-6.15,6-0.94.76-3.79-.78-4.72,0.19-6.52,6.85-12.46,18.84-12.46,33.27,0,23.56,16.09,34.57,16.26,42.4-0.24,6.33-6.89,13.89-10.1,19.81-1.83,3.37-1.39,7,2.51,5.2l13-5.56a4.41,4.41,0,0,1,3.45,0l13.05,5.56c3.21,1.77,4.16-3.05,2.54-5.17-4.37-5.72-10.61-14.87-10.61-20.42C78.37,92.4,88.8,84.57,93.07,70c0.51-2.28,4.19-1.69,7.69.5C102.2,71.44,104.91,68.31,102.33,64.8Zm-28-28.19a0.9,0.9,0,1,1,1.27-1.27L78,37.81l2.46-2.46a0.9,0.9,0,1,1,1.27,1.27l-2.46,2.46,2.46,2.46a0.9,0.9,0,1,1-1.27,1.27L78,40.34l-2.46,2.46a0.9,0.9,0,1,1-1.27-1.27l2.46-2.46ZM86.64,52C82.65,55.93,76,56.59,72,56.59c-0.73,0-1.37,0-1.89-.05-6.2-.33-11.71-2.17-13.71-4.59a0.9,0.9,0,0,1,1.38-1.15c1.67,2,6.78,3.64,12.42,3.94,6.56,0.35,12.28-1.15,15.2-4A0.9,0.9,0,0,1,86.64,52Z"/></svg>