<svg id="Layer_1" data-name="Layer 1" xmlns="http://www.w3.org/2000/svg" viewBox="0 0 144 144"><defs><style>.cls-1{fill:#e2231a;}.cls-2{fill:#f1f0e7;}</style></defs><title>FishElements</title><circle class="cls-1" cx="72" cy="71.9" r="48.74"/><path class="cls-2" d="M72,121.13A49.23,49.23,0,1,1,121.23,71.9,49.29,49.29,0,0,1,72,121.13Zm0-97.49A48.26,48.26,0,1,0,120.26,71.9,48.31,48.31,0,0,0,72,23.64Z"/><path class="cls-2" d="M52.77,72h-3.3l-4-7v7h-4V56.68h3.45l3.88,6.7v-6.7h4V72Z"/><path class="cls-2" d="M64.94,69.59c0,1.71-.88,2.42-2.63,2.42H57.15c-1.65,0-2.63-.67-2.63-2.42V59.12c0-1.63.88-2.44,2.63-2.44h5.16c1.67,0,2.63.69,2.63,2.44V69.59ZM61,68.5V60.21H58.48V68.5H61Z"/><path class="cls-2" d="M76.84,72h-4V66.85H70.65V72h-4V56.68h7.44c1.75,0,2.7.69,2.7,2.51v3.93a1.83,1.83,0,0,1-1.42,2v0a1.57,1.57,0,0,1,1.42,1.8V72Zm-4-8.65V60.19H70.65v3.17h2.24Z"/><path class="cls-2" d="M88.65,60.19H85.37V72h-4V60.19H78.14V56.68H88.65v3.51Z"/><path class="cls-2" d="M100.61,72h-4V66H93.9v6h-4V56.68h4v5.85h2.76V56.68h4V72Z"/><path class="cls-2" d="M61.54,90.54c0,1.76-1,2.42-2.69,2.42H52.39V89.44h5.2V87H55.06c-2.17,0-2.67-1.06-2.67-2.4V80.14c0-1.82.94-2.51,2.69-2.51h6.08v3.51H56.34v2.34h2.49c1.84,0,2.71.77,2.71,2.61v4.45Z"/><path class="cls-2" d="M67.06,93h-4V77.63h4V93Z"/><path class="cls-2" d="M79.24,90.54c0,1.65-.94,2.42-2.65,2.42H68.81V77.63H76.6c1.63,0,2.65.67,2.65,2.44V90.54Zm-4-1.09V81.16H72.76v8.29h2.53Z"/><path class="cls-2" d="M89.9,93H81V77.63h8.9v3.51H84.95v2.34H89.9V87H84.95v2.47H89.9V93Z"/></svg>