<svg id="Layer_1" data-name="Layer 1" xmlns="http://www.w3.org/2000/svg" viewBox="0 0 144 144"><defs><style>.cls-1{fill:#7eb6bc;}.cls-2{fill:#e2231a;}</style></defs><title>FishElements</title><path class="cls-1" d="M85.87,52.64a1.07,1.07,0,0,1-1.07-1.07,11.86,11.86,0,0,0-2.12-7.11,10.31,10.31,0,0,1-1.91-7.08,13.54,13.54,0,0,1,1.92-5.7,14.2,14.2,0,0,0,1.44-3.38,1.07,1.07,0,0,1,2.08.52,16.2,16.2,0,0,1-1.63,3.87,11.64,11.64,0,0,0-1.68,4.87,8.22,8.22,0,0,0,1.61,5.79,13.84,13.84,0,0,1,2.43,8.23A1.07,1.07,0,0,1,85.87,52.64Z"/><path class="cls-1" d="M78.61,47.54a1.07,1.07,0,0,1-1.07-1.07c0-1.18-1.13-3.25-2.34-5.43-2.68-4.89-6.36-11.6-3.69-18.48a1.07,1.07,0,0,1,2,.77c-2.31,6,.95,11.9,3.57,16.68,1.45,2.65,2.6,4.74,2.6,6.46A1.07,1.07,0,0,1,78.61,47.54Z"/><path class="cls-1" d="M66.54,52.64a1.07,1.07,0,0,1-1.07-1.07c0-2.24,1.1-3.84,2.16-5.37,1.3-1.89,2.52-3.67,1.93-6.81a1.07,1.07,0,0,1,2.1-.4c0.76,4-.85,6.36-2.27,8.42-1,1.39-1.78,2.58-1.78,4.16A1.07,1.07,0,0,1,66.54,52.64Z"/><path class="cls-2" d="M93.93,81.33L89.06,74,89,73.49C87.36,61.9,79.13,53.79,75.23,53.79c-1.42,0-2,2.22-3.7,3.61-0.57.46-2.28-.47-2.85,0.12a29.61,29.61,0,0,0-7.5,20c0,14.16,9.65,20.79,9.79,25.51-0.12,3.82-4.14,8.39-6.08,12-1.1,2-.84,4.2,1.51,3.13l7.86-3.35a2.65,2.65,0,0,1,2.08,0l7.86,3.35c1.93,1.07,2.5-1.84,1.53-3.11-2.63-3.45-6.39-9-6.39-12.3,0-4.18,6.56-9,9-18.14,0.32-1.41,2.43-1.1,4.59.26C93.84,85.44,95.53,83.5,93.93,81.33ZM76.8,65.16a0.68,0.68,0,1,1,1-1l1.39,1.39,1.39-1.39a0.68,0.68,0,1,1,1,1L80.1,66.55l1.39,1.39a0.68,0.68,0,0,1-1,1L79.14,67.5l-1.39,1.39a0.68,0.68,0,1,1-1-1l1.39-1.39Zm7.62,9.28c-2.44,2.39-6.49,2.79-8.93,2.79-0.44,0-.83,0-1.14,0C70.52,77,67.24,75.9,66,74.39a0.68,0.68,0,1,1,1-.86c1,1.17,4.07,2.15,7.38,2.32,3.93,0.22,7.32-.68,9.06-2.38A0.68,0.68,0,0,1,84.42,74.44Z"/><path class="cls-1" d="M89.27,61.37A1.07,1.07,0,0,1,88.2,60.3a7.24,7.24,0,0,1,1.64-4.61,8.92,8.92,0,0,0,1.83-6,13.89,13.89,0,0,0-1.6-5.81,1.07,1.07,0,1,1,1.87-1,15.92,15.92,0,0,1,1.87,6.85,11,11,0,0,1-2.21,7.24,5.18,5.18,0,0,0-1.26,3.39A1.07,1.07,0,0,1,89.27,61.37Z"/><path class="cls-1" d="M59.78,63.23a1.07,1.07,0,0,1-1-.73c-2.63-7.74-.57-12.59,1.42-17.29C62,41,63.67,37,62,30.78a1.07,1.07,0,0,1,2.07-.55c1.83,6.92-.09,11.44-1.94,15.82s-3.73,8.8-1.36,15.76a1.07,1.07,0,0,1-.67,1.36A1.1,1.1,0,0,1,59.78,63.23Z"/></svg>