<svg id="Layer_1" data-name="Layer 1" xmlns="http://www.w3.org/2000/svg" viewBox="0 0 144 144"><defs><style>.cls-1{fill:#7eb6bc;}</style></defs><title>FishElements</title><path class="cls-1" d="M90,67.36L86,61.15l-0.14-.65c-1.5-9.66-8.37-16.4-11.65-16.4C73,44.1,72.51,46,71,47.17c-0.48.39-1.94-.4-2.42,0.1a25.16,25.16,0,0,0-6.38,17C62.25,76.38,70.52,82,70.57,86c-0.14,3.24-3.53,7.1-5.17,10.12-0.94,1.72-.71,3.57,1.28,2.66L73.36,96a2.26,2.26,0,0,1,1.77,0l6.68,2.84c1.64,0.91,2.13-1.56,1.3-2.65-2.24-2.93-5.43-7.61-5.43-10.45,0-3.41,5.15-7.34,7.41-14.53l0.1-.33c0.3-1.35,1.84-1.39,3.91-.09C89.95,71.29,91.55,69.44,90,67.36ZM75.38,53.9a0.78,0.78,0,0,1,1.11-1.1l1,1,1-1a0.78,0.78,0,0,1,1.11,1.1l-1,1,1,1a0.78,0.78,0,1,1-1.11,1.1l-1-1-1,1A0.78,0.78,0,1,1,75.38,56l1-1Zm6.85,8c-2.16,2.11-5.7,2.46-7.82,2.46l-1,0c-2.54-.13-6-0.87-7.34-2.51a0.9,0.9,0,1,1,1.38-1.15c0.66,0.8,3,1.7,6.05,1.86s6-.55,7.44-1.93A0.9,0.9,0,0,1,82.23,61.87Z"/></svg>