<svg id="Layer_1" data-name="Layer 1" xmlns="http://www.w3.org/2000/svg" viewBox="0 0 144 144"><defs><style>.cls-1{fill:#e2231a;}</style></defs><title>FishElements</title><path class="cls-1" d="M102.33,65.23L95,54l-0.36-1c-2-20.27-16.38-34.66-23.09-34.66-2.36,0-3.28,3.68-6.15,6-0.94.76-3.79-.78-4.72,0.19-6.52,6.85-12.46,18.84-12.46,33.27,0,23.56,16.09,34.57,16.26,42.4-0.24,6.33-6.89,13.89-10.1,19.81-1.83,3.37-1.39,7,2.51,5.2l13-5.56a4.41,4.41,0,0,1,3.45,0l13.05,5.56C89.65,127,90.59,122.15,89,120c-4.37-5.72-10.61-14.87-10.61-20.42,0-6.79,10.43-14.62,14.71-29.15,0.51-2.28,4.19-1.69,7.69.5C102.2,71.87,104.91,68.74,102.33,65.23ZM74.31,37a0.9,0.9,0,1,1,1.27-1.27L78,38.23l2.46-2.46A0.9,0.9,0,1,1,81.77,37L79.31,39.5,81.77,42a0.9,0.9,0,1,1-1.27,1.27L78,40.77l-2.46,2.46A0.9,0.9,0,1,1,74.31,42l2.46-2.46ZM86.64,52.45C82.65,56.36,76,57,72,57c-0.73,0-1.37,0-1.89-.05-6.2-.33-11.71-2.17-13.71-4.59a0.9,0.9,0,0,1,1.38-1.15c1.67,2,6.78,3.64,12.42,3.94,6.56,0.35,12.28-1.15,15.2-4A0.9,0.9,0,0,1,86.64,52.45Z"/></svg>