<svg id="Layer_1" data-name="Layer 1" xmlns="http://www.w3.org/2000/svg" viewBox="0 0 144 144"><defs><style>.cls-1{fill:#e2231a;}</style></defs><title>FishElements</title><path class="cls-1" d="M104.45,62.17L97.12,50.9l-0.35-.8C95,23.78,76.33,4.92,67.75,4.92c-2.95,0-4.1,4.61-7.68,7.5-1.18,1-4.74-1-5.9.24C46,21.21,38.6,36.2,38.6,54.24c0,29.45,20.12,43.21,20.33,53-0.3,7.92-8.62,17.36-12.63,24.76-2.28,4.21-1.74,8.71,3.14,6.5l16.3-6.94a5.51,5.51,0,0,1,4.32,0l16.32,6.95c4,2.21,5.19-3.81,3.17-6.46-5.46-7.15-13.26-18.58-13.26-25.52,0-8.88,14.3-19.2,19.09-39.07,0.51-2.28,4-1.74,7.52.45C104.32,68.81,107,65.68,104.45,62.17Zm-28.38-31a0.9,0.9,0,0,1,1.27-1.27l2.46,2.46,2.46-2.46a0.9,0.9,0,1,1,1.27,1.27l-2.46,2.46,2.46,2.46a0.9,0.9,0,1,1-1.27,1.27L79.8,34.92l-2.46,2.46a0.9,0.9,0,0,1-1.27-1.27l2.46-2.46ZM86.47,47.4C81.53,52.23,73.28,53,68.3,53c-0.9,0-1.7,0-2.35-.06-7.7-.41-14.52-2.68-17-5.65a0.9,0.9,0,1,1,1.38-1.15c2.12,2.57,8.57,4.63,15.68,5,8.27,0.44,15.47-1.46,19.17-5.07A0.9,0.9,0,0,1,86.47,47.4Z"/></svg>