<svg id="Layer_1" data-name="Layer 1" xmlns="http://www.w3.org/2000/svg" viewBox="0 0 144 144"><defs><style>.cls-1{fill:#7eb6bc;}.cls-2{fill:#e2231a;}</style></defs><title>FishElements</title><path class="cls-1" d="M85,29.88A1.07,1.07,0,0,1,84,28.81a11.86,11.86,0,0,0-2.12-7.11,10.31,10.31,0,0,1-1.91-7.08,13.53,13.53,0,0,1,1.92-5.7,14.3,14.3,0,0,0,1.44-3.38,1.07,1.07,0,0,1,2.08.52,16.31,16.31,0,0,1-1.63,3.87,11.63,11.63,0,0,0-1.68,4.87,8.21,8.21,0,0,0,1.61,5.78,13.85,13.85,0,0,1,2.43,8.23A1.07,1.07,0,0,1,85,29.88Z"/><path class="cls-1" d="M77.79,24.78a1.07,1.07,0,0,1-1.07-1.07c0-1.17-1.15-3-2.38-4.93C71.67,14.57,68,8.8,70.69,1.94a1.07,1.07,0,1,1,2,.77c-2.27,5.86.91,10.88,3.46,14.92,1.46,2.3,2.71,4.28,2.71,6.08A1.07,1.07,0,0,1,77.79,24.78Z"/><path class="cls-1" d="M65.72,35.77a1.07,1.07,0,0,1-1.07-1.07c0-2.14,1-4,2-6,1.31-2.49,2.67-5.06,2-8.32a1.07,1.07,0,0,1,2.1-.4c0.76,4-.84,7-2.26,9.72-1,1.82-1.79,3.39-1.79,5A1.07,1.07,0,0,1,65.72,35.77Z"/><ellipse class="cls-1" cx="56.88" cy="116.29" rx="2.68" ry="1.76"/><path class="cls-1" d="M56.79,115.08s-0.55-3.37-2.72-3,1.09,3.37,1.09,3.37Z"/><path class="cls-1" d="M59,115.22s1.38-4.22-1.43-3.8-0.73,4.22-.73,4.22Z"/><path class="cls-1" d="M58.44,124.16h0c-7.7-.29-11.7-1.52-11.89-3.67s3.07-3.67,6.17-4.35a0.54,0.54,0,1,1,.23,1c-3.3.73-5.43,2.25-5.34,3.21,0,0.38.72,2.31,10.87,2.69A0.54,0.54,0,0,1,58.44,124.16Z"/><path class="cls-1" d="M88.45,37.29a1.07,1.07,0,0,1-1.07-1.07,11.61,11.61,0,0,1,1.55-5.37,15.13,15.13,0,0,0,1.91-7.41,14,14,0,0,0-1.6-5.81,1.07,1.07,0,0,1,1.87-1A15.92,15.92,0,0,1,93,23.44a17.17,17.17,0,0,1-2.12,8.34,9.64,9.64,0,0,0-1.34,4.43A1.07,1.07,0,0,1,88.45,37.29Z"/><path class="cls-1" d="M58.22,42.64a1.07,1.07,0,0,1-1-.73c-2.62-7.73-.57-13.16,1.41-18.41,1.8-4.75,3.5-9.25,1.85-15.46a1.07,1.07,0,0,1,2.07-.55c1.82,6.88-.08,11.91-1.92,16.77-1.94,5.12-3.77,10-1.39,17a1.07,1.07,0,0,1-.67,1.36A1.1,1.1,0,0,1,58.22,42.64Z"/><path class="cls-2" d="M102.46,81.15l-5.53-8.48-0.26-.61C95.31,52.25,81.28,38,74.82,38c-2.22,0-3.09,3.47-5.78,5.65-0.89.72-3.57-.74-4.45,0.18C58.45,50.31,52.87,61.6,52.87,75.18c0,22.21,15.2,32.57,15.3,40-0.25,6-6.49,13-9.51,18.61-1.72,3.17-1.31,6.56,2.36,4.9L73.3,133.4a4.15,4.15,0,0,1,3.25,0l12.29,5.23c3,1.67,3.91-2.87,2.39-4.87-4.11-5.39-10-14-10-19.22,0-6.69,10.77-14.46,14.37-29.42,0.38-1.72,3-1.31,5.66.34C102.36,86.15,104.4,83.79,102.46,81.15ZM81.08,57.82a0.68,0.68,0,1,1,1-1l1.85,1.85,1.85-1.85a0.68,0.68,0,1,1,1,1l-1.85,1.85,1.85,1.85a0.68,0.68,0,0,1-1,1L83.9,60.63,82,62.49a0.68,0.68,0,1,1-1-1l1.85-1.85ZM88.91,70C85.2,73.67,79,74.28,75.23,74.28c-0.68,0-1.28,0-1.77,0-5.8-.31-10.93-2-12.78-4.26a0.68,0.68,0,0,1,1-.86c1.6,1.94,6.46,3.49,11.81,3.77,6.25,0.33,11.65-1.1,14.43-3.82A0.68,0.68,0,0,1,88.91,70Z"/><ellipse class="cls-1" cx="101.91" cy="59.59" rx="2.68" ry="1.76"/><path class="cls-1" d="M102,58.38s0.55-3.37,2.72-3-1.09,3.37-1.09,3.37Z"/><path class="cls-1" d="M99.83,58.52s-1.38-4.22,1.43-3.8,0.73,4.22.73,4.22Z"/><path class="cls-1" d="M100.35,67.46a0.54,0.54,0,0,1,0-1.07c10.15-.38,10.83-2.31,10.87-2.69,0.09-1-2-2.48-5.34-3.21a0.54,0.54,0,0,1,.23-1c3.1,0.69,6.36,2.34,6.17,4.35s-4.19,3.38-11.89,3.67h0Z"/></svg>