<svg id="Layer_1" data-name="Layer 1" xmlns="http://www.w3.org/2000/svg" viewBox="0 0 144 144"><defs><style>.cls-1{fill:#7eb6bc;}.cls-2{fill:#e2231a;}</style></defs><title>FishElements</title><path class="cls-1" d="M79.83,64.14a1.07,1.07,0,0,1-1.07-1.07A11.86,11.86,0,0,0,76.65,56a10.31,10.31,0,0,1-1.91-7.08,13.52,13.52,0,0,1,1.92-5.7A14.3,14.3,0,0,0,78.1,39.8a1.07,1.07,0,0,1,2.08.52,16.18,16.18,0,0,1-1.63,3.87,11.63,11.63,0,0,0-1.68,4.87,8.21,8.21,0,0,0,1.61,5.78,13.84,13.84,0,0,1,2.43,8.23A1.07,1.07,0,0,1,79.83,64.14Z"/><path class="cls-1" d="M72.57,59A1.07,1.07,0,0,1,71.5,58c0-1.18-1.14-3.25-2.34-5.44-2.68-4.89-6.36-11.6-3.69-18.48a1.07,1.07,0,0,1,2,.77c-2.31,6,.95,11.9,3.57,16.68,1.45,2.65,2.6,4.74,2.6,6.47A1.07,1.07,0,0,1,72.57,59Z"/><path class="cls-1" d="M60.5,64.14a1.07,1.07,0,0,1-1.07-1.07c0-2.24,1.1-3.83,2.16-5.37,1.3-1.89,2.52-3.67,1.93-6.81a1.07,1.07,0,1,1,2.1-.4c0.76,4-.85,6.36-2.27,8.42-1,1.39-1.78,2.58-1.78,4.16A1.07,1.07,0,0,1,60.5,64.14Z"/><path class="cls-2" d="M84.09,83.09l-3-4.68-0.1-.49c-1.13-7.28-6.3-12.35-8.77-12.35-0.91,0-1.27,1.42-2.37,2.31-0.36.29-1.46-.3-1.82,0.07a19,19,0,0,0-4.8,12.83c0,9.06,6.17,13.31,6.26,16.33-0.08,2.45-2.65,5.37-3.89,7.66-0.7,1.3-.54,2.69,1,2l5-2.14a1.7,1.7,0,0,1,1.33,0l5,2.14c1.24,0.68,1.6-1.18,1-2-1.68-2.21-4.09-5.73-4.09-7.87,0-2.57,3.88-5.53,5.58-10.94l0.08-.25c0.23-1,1.39-1,2.94-.07C84,86,85.24,84.65,84.09,83.09ZM73.06,73a0.59,0.59,0,1,1,.83-0.83l0.78,0.78,0.78-.78a0.59,0.59,0,1,1,.83.83l-0.78.78,0.78,0.78a0.59,0.59,0,0,1-.83.83l-0.78-.78-0.78.78a0.59,0.59,0,1,1-.83-0.83l0.78-.78Zm5.16,6c-1.62,1.59-4.29,1.86-5.89,1.86l-0.74,0c-1.91-.1-4.51-0.66-5.52-1.89a0.68,0.68,0,0,1,1-.86c0.5,0.6,2.22,1.28,4.55,1.4S76.21,79,77.28,78A0.68,0.68,0,1,1,78.22,79Z"/></svg>