<svg id="Layer_1" data-name="Layer 1" xmlns="http://www.w3.org/2000/svg" viewBox="0 0 144 144"><defs><style>.cls-1{fill:#e2231a;}</style></defs><title>FishElements</title><path class="cls-1" d="M91.7,67.58L85.3,58l-0.07-.39c-2-11.8-10.43-20-14.48-20-1.51,0-2.1,2.36-3.93,3.84-0.6.49-2.43-.5-3,0.12-4.18,4.38-8,12.06-8,21.29C55.83,78,66.13,85,66.24,90c-0.15,4.05-4.41,8.89-6.47,12.68-1.17,2.15-.89,4.46,1.61,3.33l8.35-3.56a2.82,2.82,0,0,1,2.21,0L80.29,106c2.05,1.13,2.66-2,1.62-3.31-2.8-3.66-6.79-9.52-6.79-13.07,0-4.14,6.05-8.88,9-17.35l0.12-.4c0.42-1.87,3.31-1.43,6.18.37C91.59,73,93.82,70.47,91.7,67.58ZM72.3,49.85a0.9,0.9,0,1,1,1.27-1.27l1.35,1.35,1.35-1.35a0.9,0.9,0,1,1,1.27,1.27L76.18,51.2l1.35,1.35a0.9,0.9,0,1,1-1.27,1.27l-1.35-1.35-1.35,1.35a0.9,0.9,0,0,1-1.27-1.27l1.35-1.35Zm8.35,9.86c-2.64,2.58-7,3-9.61,3-0.47,0-.88,0-1.21,0-4.12-.22-7.66-1.42-9-3.05a0.9,0.9,0,0,1,1.38-1.15c0.86,1,3.78,2.2,7.72,2.4,4.13,0.21,7.68-.71,9.48-2.47A0.9,0.9,0,1,1,80.64,59.72Z"/></svg>