<svg id="Layer_1" data-name="Layer 1" xmlns="http://www.w3.org/2000/svg" viewBox="0 0 144 144"><defs><style>.cls-1{fill:#e2231a;}</style></defs><title>FishElements</title><path class="cls-1" d="M99.44,68.26h0A1.52,1.52,0,0,1,98,67a26.42,26.42,0,0,0-1-3.72,1.51,1.51,0,0,1,.58-1.77,2.23,2.23,0,0,0,.71-3l-1.51-2.62A2.22,2.22,0,0,0,93.89,55a1.51,1.51,0,0,1-1.83-.38,26.58,26.58,0,0,0-2.72-2.72A1.51,1.51,0,0,1,89,50.11a2.23,2.23,0,0,0-.87-2.93l-2.62-1.51a2.22,2.22,0,0,0-3,.71,1.51,1.51,0,0,1-1.77.58A26.36,26.36,0,0,0,77,46a1.51,1.51,0,0,1-1.25-1.4h0a2.23,2.23,0,0,0-2.22-2.1h-3a2.23,2.23,0,0,0-2.22,2.1h0A1.51,1.51,0,0,1,67,46a26.32,26.32,0,0,0-3.72,1,1.51,1.51,0,0,1-1.77-.58,2.23,2.23,0,0,0-3-.71l-2.62,1.51A2.23,2.23,0,0,0,55,50.11a1.51,1.51,0,0,1-.38,1.83,26.58,26.58,0,0,0-2.72,2.72,1.51,1.51,0,0,1-1.83.38,2.22,2.22,0,0,0-2.93.87l-1.51,2.62a2.23,2.23,0,0,0,.71,3A1.51,1.51,0,0,1,47,63.29,26.27,26.27,0,0,0,46,67a1.52,1.52,0,0,1-1.4,1.25h0a2.23,2.23,0,0,0-2.1,2.22v3a2.23,2.23,0,0,0,2.1,2.22h0A1.52,1.52,0,0,1,46,77a26.25,26.25,0,0,0,1,3.72,1.51,1.51,0,0,1-.58,1.77,2.23,2.23,0,0,0-.71,3l1.51,2.62a2.23,2.23,0,0,0,2.93.87,1.51,1.51,0,0,1,1.83.38,26.57,26.57,0,0,0,2.72,2.72A1.51,1.51,0,0,1,55,93.89a2.23,2.23,0,0,0,.87,2.93l2.62,1.51a2.23,2.23,0,0,0,3-.71A1.51,1.51,0,0,1,63.29,97,26.32,26.32,0,0,0,67,98a1.51,1.51,0,0,1,1.25,1.4h0a2.23,2.23,0,0,0,2.22,2.1h3a2.23,2.23,0,0,0,2.22-2.1h0A1.51,1.51,0,0,1,77,98a26.32,26.32,0,0,0,3.72-1,1.5,1.5,0,0,1,1.77.58,2.23,2.23,0,0,0,3,.71l2.62-1.51A2.23,2.23,0,0,0,89,93.89a1.52,1.52,0,0,1,.38-1.83,26.57,26.57,0,0,0,2.72-2.72A1.51,1.51,0,0,1,93.89,89a2.23,2.23,0,0,0,2.93-.87l1.51-2.62a2.23,2.23,0,0,0-.71-3A1.51,1.51,0,0,1,97,80.71,26.42,26.42,0,0,0,98,77a1.52,1.52,0,0,1,1.4-1.25h0a2.23,2.23,0,0,0,2.1-2.22v-3A2.23,2.23,0,0,0,99.44,68.26ZM72,91.21A19.21,19.21,0,1,1,91.21,72,19.21,19.21,0,0,1,72,91.21Z"/><circle class="cls-1" cx="72" cy="72" r="13.58"/></svg>