<svg id="Layer_1" data-name="Layer 1" xmlns="http://www.w3.org/2000/svg" viewBox="0 0 144 144"><defs><style>.cls-1{fill:#7eb6bc;}</style></defs><title>FishElements</title><path class="cls-1" d="M96.75,65.21l-6.47-9.79-0.08-.63C88,39.41,77.11,28.64,71.92,28.64c-1.89,0-2.63,2.95-4.92,4.8-0.75.61-3-.63-3.78,0.16-5.22,5.48-10,15.07-10,26.61,0,18.85,12.88,27.66,13,33.92-0.19,5.07-5.51,11.11-8.08,15.85-1.46,2.69-1.11,5.58,2,4.16l10.43-4.44a3.53,3.53,0,0,1,2.76,0l10.44,4.44c2.57,1.42,3.32-2.44,2-4.14-3.5-4.58-8.49-11.89-8.49-16.33,0-5.55,8.71-12,12-24.09,0.42-1.88,3.23-1.45,6.1.35C96.64,70.67,98.88,68.09,96.75,65.21ZM74,43.73a0.9,0.9,0,0,1,1.27-1.27l1.84,1.84L79,42.47a0.9,0.9,0,1,1,1.27,1.27l-1.84,1.84,1.84,1.84A0.9,0.9,0,1,1,79,48.69l-1.84-1.84-1.84,1.84A0.9,0.9,0,0,1,74,47.42l1.84-1.84ZM84.13,56.06c-3.24,3.17-8.62,3.7-11.86,3.7-0.58,0-1.1,0-1.52,0C65.66,59.45,61.31,58,59.66,56A0.9,0.9,0,0,1,61,54.85c1.28,1.56,5.4,2.85,9.8,3.09,5.22,0.29,9.72-.9,12-3.16A0.9,0.9,0,0,1,84.13,56.06Z"/></svg>