<svg id="Layer_1" data-name="Layer 1" xmlns="http://www.w3.org/2000/svg" viewBox="0 0 144 144"><defs><style>.cls-1{fill:#e2231a;}.cls-2{fill:#f1f0e7;}</style></defs><title>FishElements</title><circle class="cls-1" cx="74.83" cy="71.9" r="48.74"/><path class="cls-2" d="M74.83,121.13A49.23,49.23,0,1,1,124.06,71.9,49.29,49.29,0,0,1,74.83,121.13Zm0-97.49A48.26,48.26,0,1,0,123.09,71.9,48.31,48.31,0,0,0,74.83,23.64Z"/><path class="cls-2" d="M54.5,69.59c0,1.76-1,2.42-2.69,2.42H45.34V68.5h5.2V66H48c-2.17,0-2.67-1.06-2.67-2.4V59.2c0-1.82.94-2.51,2.69-2.51h6.08v3.51H49.3v2.34h2.49c1.84,0,2.71.77,2.71,2.61v4.45Z"/><path class="cls-2" d="M66.48,69.59c0,1.71-.88,2.42-2.63,2.42H58.69c-1.65,0-2.63-.67-2.63-2.42V59.12c0-1.63.88-2.44,2.63-2.44h5.16c1.67,0,2.63.69,2.63,2.44V69.59Zm-4-1.09V60.21H60V68.5h2.51Z"/><path class="cls-2" d="M78.65,69.52c0,1.82-1,2.49-2.71,2.49h-5c-1.75,0-2.69-.67-2.69-2.49V56.68h4V68.5h2.51V56.68h4V69.52Z"/><path class="cls-2" d="M90.45,60.19H87.17V72h-4V60.19H79.94V56.68H90.45v3.51Z"/><path class="cls-2" d="M102.41,72h-4V66H95.7v6h-4V56.68h4v5.85h2.76V56.68h4V72Z"/><path class="cls-2" d="M64.37,90.54c0,1.76-1,2.42-2.69,2.42H55.22V89.44h5.2V87H57.89c-2.17,0-2.67-1.06-2.67-2.4V80.14c0-1.82.94-2.51,2.69-2.51H64v3.51H59.18v2.34h2.49c1.84,0,2.71.77,2.71,2.61v4.45Z"/><path class="cls-2" d="M69.89,93h-4V77.63h4V93Z"/><path class="cls-2" d="M82.07,90.54c0,1.65-.94,2.42-2.65,2.42H71.64V77.63h7.79c1.63,0,2.65.67,2.65,2.44V90.54Zm-4-1.09V81.16H75.59v8.29h2.53Z"/><path class="cls-2" d="M92.73,93h-8.9V77.63h8.9v3.51H87.78v2.34h4.95V87H87.78v2.47h4.95V93Z"/></svg>