<svg id="Layer_1" data-name="Layer 1" xmlns="http://www.w3.org/2000/svg" viewBox="0 0 144 144"><defs><style>.cls-1{fill:#7eb6bc;}.cls-2{fill:#e2231a;}</style></defs><title>FishElements</title><path class="cls-1" d="M87.44,58.61a1.07,1.07,0,0,1-1.07-1.07,11.86,11.86,0,0,0-2.12-7.11,10.31,10.31,0,0,1-1.91-7.08,13.54,13.54,0,0,1,1.92-5.7,14.2,14.2,0,0,0,1.44-3.38,1.07,1.07,0,0,1,2.08.52,16.2,16.2,0,0,1-1.63,3.87,11.64,11.64,0,0,0-1.68,4.87,8.22,8.22,0,0,0,1.61,5.79,13.84,13.84,0,0,1,2.43,8.23A1.07,1.07,0,0,1,87.44,58.61Z"/><path class="cls-1" d="M79.35,53.51a1.07,1.07,0,0,1-1.07-1.07c0-1.18-1.13-3.25-2.34-5.43-2.68-4.89-6.36-11.6-3.69-18.48a1.07,1.07,0,1,1,2,.77c-2.31,6,.95,11.9,3.57,16.68,1.45,2.65,2.6,4.74,2.6,6.46A1.07,1.07,0,0,1,79.35,53.51Z"/><path class="cls-1" d="M68.11,60.77A1.07,1.07,0,0,1,67,59.7c0-2.24,1.1-3.84,2.16-5.37,1.3-1.89,2.52-3.67,1.93-6.81a1.07,1.07,0,0,1,2.1-.4c0.76,4-.85,6.36-2.27,8.42-1,1.39-1.78,2.58-1.78,4.16A1.07,1.07,0,0,1,68.11,60.77Z"/><path class="cls-1" d="M90.85,67.35a1.07,1.07,0,0,1-1.07-1.07,7.24,7.24,0,0,1,1.64-4.61,8.92,8.92,0,0,0,1.83-6,13.89,13.89,0,0,0-1.6-5.81,1.07,1.07,0,1,1,1.87-1,15.92,15.92,0,0,1,1.87,6.85,11,11,0,0,1-2.21,7.24,5.18,5.18,0,0,0-1.26,3.39A1.07,1.07,0,0,1,90.85,67.35Z"/><path class="cls-2" d="M95.42,83.29L90.6,76.1l0-.3c-1.53-8.89-7.86-15-10.9-15-1.14,0-1.58,1.78-3,2.89-0.45.37-1.83-.38-2.28,0.09a23.68,23.68,0,0,0-6,16c0,11.33,7.72,16.64,7.83,20.41-0.1,3.06-3.31,6.71-4.86,9.57-0.88,1.62-.67,3.36,1.21,2.51l6.29-2.68a2.12,2.12,0,0,1,1.66,0l6.29,2.68c1.55,0.85,2-1.47,1.22-2.49-2.11-2.76-5.11-7.17-5.11-9.84,0-3.11,4.56-6.69,6.77-13.07l0.09-.3c0.32-1.41,2.49-1.08,4.65.28C95.34,87.4,97,85.46,95.42,83.29ZM80.81,69.94a0.68,0.68,0,1,1,1-1l1,1,1-1a0.68,0.68,0,1,1,1,1l-1,1,1,1a0.68,0.68,0,0,1-1,1l-1-1-1,1a0.68,0.68,0,1,1-1-1l1-1Zm6.28,7.43c-2,1.95-5.27,2.27-7.24,2.27l-0.91,0c-3.1-.17-5.77-1.07-6.79-2.3a0.68,0.68,0,0,1,1-.86C73.85,77.23,76,78.11,79,78.26s5.78-.53,7.14-1.86A0.68,0.68,0,1,1,87.1,77.37Z"/></svg>