<svg id="Layer_1" data-name="Layer 1" xmlns="http://www.w3.org/2000/svg" viewBox="0 0 144 144"><defs><style>.cls-1{fill:#7eb6bc;}</style></defs><title>FishElements</title><path class="cls-1" d="M108.75,73.74l-3.5-8.23a2.78,2.78,0,0,1,0-2.18l3.5-8.23c1.12-2-1.92-2.62-3.26-1.6-3.61,2.76-9.38,6.69-12.88,6.69-4.2,0-9-6.35-17.9-9.13l-0.41-.13c-1.66-.37-1.71-2.27-0.11-4.81,0.66-1-1.62-3-4.17-1.14l-7.66,5-0.8.17C49.65,52,41.35,60.45,41.35,64.49c0,1.49,2.32,2.07,3.78,3.88,0.48,0.59-.49,2.39.12,3,4.32,4.11,11.88,7.86,21,7.86C81.06,79.2,88,69.11,92.94,69c4,0.13,8.78,4.33,12.53,6.36C107.59,76.47,109.87,76.2,108.75,73.74ZM57.19,61.81a0.76,0.76,0,1,1-1.08,1.08L54.7,61.48l-1.41,1.41a0.76,0.76,0,0,1-1.08-1.08l1.41-1.41L52.21,59a0.76,0.76,0,1,1,1.08-1.08l1.41,1.41,1.41-1.41A0.76,0.76,0,1,1,57.19,59L55.78,60.4Zm8.72,3.61c-0.21,4-1.37,7.48-3,8.79a0.76,0.76,0,0,1-1.08-.1A0.76,0.76,0,0,1,62,73c1.22-1,2.23-4.24,2.41-7.69,0.22-4.11-.71-7.63-2.47-9.43A0.77,0.77,0,1,1,63,54.83C66,57.86,66,63.24,65.91,65.42Z"/><path class="cls-1" d="M90.27,55.66a1.53,1.53,0,0,1-1.53-1.53,10.37,10.37,0,0,1,2.34-6.59c1.28-1.85,2.61-3.77,2.61-8.6a19.85,19.85,0,0,0-2.28-8.3,1.53,1.53,0,1,1,2.67-1.49,22.75,22.75,0,0,1,2.67,9.79c0,5.78-1.75,8.31-3.15,10.34a7.42,7.42,0,0,0-1.8,4.85A1.53,1.53,0,0,1,90.27,55.66Z"/><path class="cls-1" d="M47.62,50a1.53,1.53,0,0,1-1.49-1.2c-1.21-5.48.79-9.59,2.9-14,2.63-5.42,5.61-11.56,2.81-22.13a1.53,1.53,0,0,1,3-.78c3.09,11.67-.29,18.65-3,24.25-2,4-3.65,7.52-2.66,12A1.53,1.53,0,0,1,47.95,50,1.61,1.61,0,0,1,47.62,50Z"/><path class="cls-1" d="M84.27,45.74a1.53,1.53,0,0,1-1.53-1.53,16.93,16.93,0,0,0-3-10.16c-1.55-2.54-3.15-5.16-2.73-10.11a19.32,19.32,0,0,1,2.75-8.14A20.43,20.43,0,0,0,81.79,11a1.53,1.53,0,1,1,3,.74,23.35,23.35,0,0,1-2.33,5.53,16.6,16.6,0,0,0-2.4,7c-0.33,4,.83,5.85,2.3,8.26A19.78,19.78,0,0,1,85.8,44.21,1.53,1.53,0,0,1,84.27,45.74Z"/><path class="cls-1" d="M73.89,38.45a1.53,1.53,0,0,1-1.53-1.53c0-1.68-1.62-4.64-3.34-7.76-3.83-7-9.09-16.56-5.27-26.4A1.53,1.53,0,0,1,66.6,3.87c-3.3,8.51,1.36,17,5.1,23.82,2.07,3.78,3.71,6.77,3.71,9.23A1.53,1.53,0,0,1,73.89,38.45Z"/><path class="cls-1" d="M56.65,45.74a1.53,1.53,0,0,1-1.53-1.53c0-3.2,1.57-5.48,3.08-7.68,1.85-2.69,3.6-5.23,2.75-9.72a1.53,1.53,0,1,1,3-.57c1.09,5.74-1.21,9.08-3.24,12-1.36,2-2.54,3.69-2.54,5.94A1.53,1.53,0,0,1,56.65,45.74Z"/><ellipse class="cls-1" cx="105.25" cy="35.36" rx="3.83" ry="2.51"/><path class="cls-1" d="M105.38,33.63s0.79-4.81,3.88-4.34-1.56,4.81-1.56,4.81Z"/><path class="cls-1" d="M102.29,33.83s-2-6,2-5.43,1,6,1,6Z"/><path class="cls-1" d="M103,46.61a0.77,0.77,0,0,1,0-1.53c14.49-.55,15.47-3.3,15.52-3.85,0.13-1.37-2.91-3.54-7.62-4.59a0.76,0.76,0,0,1-.58-0.91,0.78,0.78,0,0,1,.91-0.58c4.43,1,9.08,3.34,8.82,6.22-0.27,3.06-6,4.82-17,5.24h0Z"/><ellipse class="cls-1" cx="36.67" cy="46.57" rx="3.83" ry="2.51"/><path class="cls-1" d="M36.55,44.84S35.76,40,32.66,40.5s1.56,4.81,1.56,4.81Z"/><path class="cls-1" d="M39.64,45s2-6-2-5.43-1,6-1,6Z"/><path class="cls-1" d="M38.9,57.81h0c-11-.42-16.71-2.18-17-5.24-0.26-2.88,4.39-5.24,8.82-6.22a0.77,0.77,0,0,1,.91.58,0.76,0.76,0,0,1-.58.91c-4.71,1-7.75,3.22-7.62,4.59,0,0.55,1,3.3,15.52,3.85A0.77,0.77,0,0,1,38.9,57.81Z"/><path class="cls-1" d="M41.14,115.89V101.74H38.57V98.91h8.35v2.82H44.35v14.15H41.14Z"/><path class="cls-1" d="M48.17,107.41c0-5,1.55-8.78,5.29-8.78s5.29,3.79,5.29,8.78-1.57,8.78-5.29,8.78S48.17,112.4,48.17,107.41Zm7.3,0c0-3.38-.51-5.93-2-5.93s-2,2.55-2,5.93,0.51,5.93,2,5.93S55.48,110.75,55.48,107.41Z"/><path class="cls-1" d="M60.77,115.89v-17H65c4.1,0,5.78,3.66,5.78,8.5s-1.65,8.48-5.75,8.48H60.77Zm6.72-8.48c0-3.74-.82-5.68-2.5-5.68H64v11.33h1C66.7,113.06,67.49,111,67.49,107.41Z"/><path class="cls-1" d="M79.1,115.89l-0.51-3.13H75.44l-0.51,3.13H71.62l3.54-17h3.69l3.57,17H79.1ZM77,102.5l-1.22,7.43h2.44Z"/><path class="cls-1" d="M85.29,115.89v-7l-4-10h3.41l2.16,6.85,2.21-6.85h3.36l-4,10v7H85.29Z"/><path class="cls-1" d="M94.79,105.53l-1.25-1a4.46,4.46,0,0,0,1.89-2.39,1.64,1.64,0,0,1-.46.08,1.6,1.6,0,0,1-1.58-1.71,1.84,1.84,0,0,1,1.83-1.83,2.16,2.16,0,0,1,2,2.44A5.43,5.43,0,0,1,94.79,105.53Z"/><path class="cls-1" d="M97.52,114.51l1.4-2.52a3.56,3.56,0,0,0,2.77,1.35,1.7,1.7,0,0,0,1.7-1.86c0-3-5.39-3-5.39-8.12a4.54,4.54,0,0,1,4.73-4.73,5.34,5.34,0,0,1,3.69,1.37l-1.25,2.47a3.11,3.11,0,0,0-2.34-1,1.57,1.57,0,0,0-1.58,1.71c0,2.64,5.39,3,5.39,8.09a4.59,4.59,0,0,1-4.76,4.91A5.89,5.89,0,0,1,97.52,114.51Z"/><path class="cls-1" d="M47.81,138.21v-17H51v17H47.81Z"/><path class="cls-1" d="M60.56,138.21l-3.43-9v9H53.92v-17h3.21l3.26,8.65v-8.65h3.21v17h-3Z"/><path class="cls-1" d="M66.5,138.21v-17h4.22c4.1,0,5.78,3.66,5.78,8.5s-1.65,8.48-5.75,8.48H66.5Zm6.72-8.48c0-3.74-.82-5.68-2.5-5.68h-1v11.33h1C72.43,135.38,73.22,133.35,73.22,129.73Z"/><path class="cls-1" d="M78.17,138.21v-17H85.6v2.82H81.37v4.1h4V131h-4v4.4H85.6v2.82H78.17Z"/><path class="cls-1" d="M94.56,138.21l-2.09-5.85-2.06,5.85H86.88l3.74-8.65-3.54-8.32h3.54l1.86,5.55,1.86-5.55H97.9l-3.56,8.3,3.77,8.68H94.56Z"/></svg>