<svg id="Layer_1" data-name="Layer 1" xmlns="http://www.w3.org/2000/svg" viewBox="0 0 144 144"><defs><style>.cls-1{fill:#e2231a;}</style></defs><title>FishElements</title><path class="cls-1" d="M70.69,70.27c0-3,1.21-4.18,3.33-4.18s3.33,1.15,3.33,4.18v2.06h6.3V70.69c0-6.78-3.33-10.66-9.81-10.66a13.73,13.73,0,0,0-1.75.14l19.5-32.41a0.57,0.57,0,1,0-1-.59L63.84,71.66V53.18H57.18V82.73L37,116.24a0.57,0.57,0,0,0,.2.78,0.56,0.56,0,0,0,.29.08,0.57,0.57,0,0,0,.49-0.27L64.24,73.2c1.65,9.87,12.8,11.88,12.8,20,0,3-1.33,4.12-3.45,4.12s-3.45-1.09-3.45-4.12V89.83h-6.3v2.91c0,6.78,3.39,10.66,9.93,10.66s9.94-3.88,9.94-10.66C83.71,80.63,70.69,79,70.69,70.27Z"/><polygon class="cls-1" points="102.32 60.52 102.32 78.69 94.75 78.69 94.75 60.52 88.09 60.52 88.09 102.92 94.75 102.92 94.75 84.75 102.32 84.75 102.32 102.92 109.11 102.92 109.11 60.52 102.32 60.52"/><polygon class="cls-1" points="41.56 65.88 50.16 65.88 50.16 59.82 41.56 59.82 41.56 47.04 52.52 47.04 52.52 40.99 34.9 40.99 34.9 83.38 41.56 83.38 41.56 65.88"/><circle class="cls-1" cx="60.51" cy="44.69" r="3.71"/></svg>