<svg id="Layer_1" data-name="Layer 1" xmlns="http://www.w3.org/2000/svg" viewBox="0 0 144 144"><defs><style>.cls-1{fill:#7eb6bc;}.cls-2{fill:#e2231a;}</style></defs><title>FishElements</title><path class="cls-1" d="M82,43.47a1.07,1.07,0,0,1-1.07-1.07,11.86,11.86,0,0,0-2.12-7.11,10.31,10.31,0,0,1-1.91-7.08,13.52,13.52,0,0,1,1.92-5.7,14.3,14.3,0,0,0,1.44-3.38,1.07,1.07,0,0,1,2.08.52,16.18,16.18,0,0,1-1.63,3.87A11.63,11.63,0,0,0,79,28.39a8.21,8.21,0,0,0,1.61,5.78,13.85,13.85,0,0,1,2.43,8.23A1.07,1.07,0,0,1,82,43.47Z"/><path class="cls-1" d="M74.74,38.37a1.07,1.07,0,0,1-1.07-1.07c0-1.18-1.14-3.25-2.34-5.44C68.65,27,65,20.27,67.64,13.38a1.07,1.07,0,1,1,2,.77c-2.31,6,.95,11.9,3.57,16.68,1.45,2.65,2.6,4.74,2.6,6.47A1.07,1.07,0,0,1,74.74,38.37Z"/><path class="cls-1" d="M62.67,43.47A1.07,1.07,0,0,1,61.6,42.4c0-2.24,1.1-3.83,2.15-5.37,1.3-1.89,2.52-3.67,1.93-6.81a1.07,1.07,0,0,1,2.1-.4c0.76,4-.85,6.36-2.27,8.42-1,1.39-1.78,2.58-1.78,4.16A1.07,1.07,0,0,1,62.67,43.47Z"/><ellipse class="cls-1" cx="53.83" cy="106.14" rx="2.68" ry="1.76"/><path class="cls-1" d="M53.75,104.92s-0.55-3.37-2.72-3,1.09,3.37,1.09,3.37Z"/><path class="cls-1" d="M55.91,105.06s1.38-4.22-1.43-3.8-0.73,4.22-.73,4.22Z"/><path class="cls-1" d="M55.4,114h0c-7.7-.29-11.7-1.52-11.89-3.67s3.07-3.67,6.17-4.35a0.54,0.54,0,1,1,.23,1c-3.3.73-5.43,2.25-5.34,3.21,0,0.38.72,2.31,10.87,2.69A0.54,0.54,0,0,1,55.4,114Z"/><path class="cls-1" d="M85.41,52.21a1.07,1.07,0,0,1-1.07-1.07A7.24,7.24,0,0,1,86,46.52a8.92,8.92,0,0,0,1.83-6,13.84,13.84,0,0,0-1.6-5.81,1.07,1.07,0,0,1,1.87-1,15.91,15.91,0,0,1,1.87,6.85,11,11,0,0,1-2.21,7.23,5.2,5.2,0,0,0-1.26,3.4A1.07,1.07,0,0,1,85.41,52.21Z"/><path class="cls-1" d="M55.17,57.56a1.07,1.07,0,0,1-1-.73c-2.63-7.74-.57-12.59,1.42-17.29,1.8-4.23,3.49-8.23,1.84-14.44a1.07,1.07,0,0,1,2.07-.55c1.83,6.92-.09,11.44-1.94,15.82s-3.73,8.8-1.36,15.76a1.07,1.07,0,0,1-.67,1.36A1.1,1.1,0,0,1,55.17,57.56Z"/><path class="cls-2" d="M94.81,82.11l-5.52-8.48L89,72.9C87.49,57.63,76.68,46.8,71.63,46.8c-1.78,0-2.47,2.77-4.63,4.52-0.71.57-2.85-.59-3.56,0.15-4.91,5.16-9.38,14.18-9.38,25,0,17.7,12.06,26,12.23,31.89-0.15,4.78-5.17,10.49-7.6,15-1.38,2.54-1,5.25,1.89,3.92l9.82-4.18a3.32,3.32,0,0,1,2.6,0l9.83,4.18c2.42,1.33,3.13-2.3,1.91-3.89-3.29-4.31-8-11.2-8-15.37,0-5.11,7.86-11,11.08-22,0.38-1.72,3.16-1.27,5.79.38C94.71,87.11,96.76,84.75,94.81,82.11ZM73.71,60.88a0.68,0.68,0,1,1,1-1l1.85,1.85,1.85-1.85a0.68,0.68,0,1,1,1,1l-1.85,1.85,1.85,1.85a0.68,0.68,0,0,1-1,1l-1.85-1.85-1.85,1.85a0.68,0.68,0,0,1-1-1l1.85-1.85ZM83,72.48c-3,2.94-8,3.44-11,3.44-0.55,0-1,0-1.42,0-4.67-.25-8.82-1.64-10.32-3.45a0.68,0.68,0,0,1,1-.86c1.26,1.52,5.1,2.74,9.35,3,5,0.26,9.25-.86,11.45-3A0.68,0.68,0,0,1,83,72.48Z"/></svg>